<svg xmlns="http://www.w3.org/2000/svg" xmlns:xlink="http://www.w3.org/1999/xlink" width="500" zoomAndPan="magnify" viewBox="0 0 375 374.999991" height="500" preserveAspectRatio="xMidYMid meet" version="1.0"><defs><g/></defs><path fill="rgb(15.289307%, 14.509583%, 14.509583%)" d="M 186.371094 26.890625 C 120.71875 26.890625 67.496094 80.109375 67.496094 145.765625 C 67.496094 211.417969 120.71875 264.640625 186.371094 264.640625 C 252.023438 264.640625 305.246094 211.417969 305.246094 145.765625 C 305.246094 80.109375 252.023438 26.890625 186.371094 26.890625 " fill-opacity="1" fill-rule="nonzero"/><g fill="rgb(0%, 0%, 0%)" fill-opacity="1"><g transform="translate(5.299146, 331.831471)"><g><path d="M 31.070312 -3.070312 C 31.070312 -3.070312 27.398438 0.109375 21.042969 0.109375 C 14.90625 0.109375 6.191406 -2.628906 6.191406 -17.042969 C 6.191406 -31.234375 15.726562 -34.140625 21.042969 -34.140625 C 27.507812 -34.140625 31.070312 -31.5625 31.070312 -31.5625 L 31.070312 -32.769531 C 31.070312 -32.769531 27.289062 -35.015625 21.042969 -35.015625 C 11.179688 -35.015625 2.191406 -29.757812 2.191406 -17.042969 C 2.191406 -2.410156 13.644531 1.042969 20.550781 1.042969 C 27.398438 1.042969 31.070312 -1.863281 31.070312 -1.863281 Z M 31.070312 -3.070312 "/></g></g></g><g fill="rgb(0%, 0%, 0%)" fill-opacity="1"><g transform="translate(49.682172, 331.831471)"><g><path d="M 26.742188 0.0546875 L 13.863281 -16.164062 C 17.917969 -16.714844 24.058594 -18.6875 24.058594 -25.753906 C 24.058594 -33.316406 15.835938 -34.359375 13.042969 -34.359375 C 10.355469 -34.359375 2.628906 -34.359375 2.628906 -34.359375 L 2.628906 0.0546875 L 6.519531 0.0546875 L 6.519531 -15.945312 L 9.042969 -15.945312 L 21.753906 0.0546875 Z M 6.519531 -33.480469 L 10.960938 -33.480469 C 16.550781 -33.480469 19.890625 -31.179688 19.890625 -25.152344 C 19.890625 -19.015625 15.945312 -16.824219 9.535156 -16.824219 L 6.519531 -16.824219 Z M 6.519531 -33.480469 "/></g></g></g><g fill="rgb(0%, 0%, 0%)" fill-opacity="1"><g transform="translate(89.243635, 331.831471)"><g><path d="M 26.6875 -34.359375 L 16.273438 -16.878906 L 6.246094 -34.359375 L 1.753906 -34.359375 L 12.824219 -14.960938 L 12.824219 0.0546875 L 16.769531 0.0546875 L 16.769531 -16 L 27.78125 -34.359375 Z M 26.6875 -34.359375 "/></g></g></g><g fill="rgb(0%, 0%, 0%)" fill-opacity="1"><g transform="translate(129.791322, 331.831471)"><g><path d="M 13.042969 -34.359375 C 10.355469 -34.359375 2.628906 -34.359375 2.628906 -34.359375 L 2.628906 0.0546875 L 6.519531 0.0546875 L 6.519531 -15.945312 L 10.464844 -15.945312 C 12.109375 -15.945312 24.058594 -15.890625 24.058594 -25.753906 C 24.058594 -33.316406 15.835938 -34.359375 13.042969 -34.359375 Z M 9.535156 -16.824219 L 6.519531 -16.824219 L 6.519531 -33.480469 L 10.960938 -33.480469 C 16.550781 -33.480469 19.890625 -31.179688 19.890625 -25.152344 C 19.890625 -19.015625 15.945312 -16.824219 9.535156 -16.824219 Z M 9.535156 -16.824219 "/></g></g></g><g fill="rgb(0%, 0%, 0%)" fill-opacity="1"><g transform="translate(167.106377, 331.831471)"><g><path d="M 26.90625 -34.359375 L 1.808594 -34.359375 L 1.808594 -33.480469 L 12.382812 -33.480469 L 12.382812 0.0546875 L 16.332031 0.0546875 L 16.332031 -33.480469 L 26.90625 -33.480469 Z M 26.90625 -34.359375 "/></g></g></g><g fill="rgb(0%, 0%, 0%)" fill-opacity="1"><g transform="translate(206.832206, 331.831471)"><g><path d="M 21.042969 -35.015625 C 11.179688 -35.015625 2.191406 -29.757812 2.191406 -17.042969 C 2.191406 -2.410156 14.136719 1.042969 21.042969 1.042969 C 27.894531 1.042969 39.894531 -2.410156 39.894531 -17.042969 C 39.894531 -29.757812 30.851562 -35.015625 21.042969 -35.015625 Z M 21.042969 0.109375 C 14.851562 0.109375 6.191406 -2.628906 6.191406 -17.042969 C 6.191406 -31.234375 15.726562 -34.140625 21.042969 -34.140625 C 26.359375 -34.140625 35.894531 -31.234375 35.894531 -17.042969 C 35.894531 -2.628906 27.179688 0.109375 21.042969 0.109375 Z M 21.042969 0.109375 "/></g></g></g><g fill="rgb(0%, 0%, 0%)" fill-opacity="1"><g transform="translate(260.200889, 331.831471)"><g><path d="M 28.660156 0.0546875 L 32.878906 0.0546875 L 17.808594 -35.015625 L 17.535156 -35.015625 L 1.917969 0.0546875 L 3.125 0.0546875 L 9.316406 -13.753906 L 22.6875 -13.753906 Z M 9.699219 -14.6875 L 16.109375 -29.097656 L 22.304688 -14.6875 Z M 9.699219 -14.6875 "/></g></g></g><g fill="rgb(0%, 0%, 0%)" fill-opacity="1"><g transform="translate(306.008465, 331.831471)"><g><path d="M 13.042969 -34.359375 C 10.355469 -34.359375 2.628906 -34.359375 2.628906 -34.359375 L 2.628906 0.0546875 L 6.519531 0.0546875 L 6.519531 -15.945312 L 10.464844 -15.945312 C 12.109375 -15.945312 24.058594 -15.890625 24.058594 -25.753906 C 24.058594 -33.316406 15.835938 -34.359375 13.042969 -34.359375 Z M 9.535156 -16.824219 L 6.519531 -16.824219 L 6.519531 -33.480469 L 10.960938 -33.480469 C 16.550781 -33.480469 19.890625 -31.179688 19.890625 -25.152344 C 19.890625 -19.015625 15.945312 -16.824219 9.535156 -16.824219 Z M 9.535156 -16.824219 "/></g></g></g><g fill="rgb(0%, 0%, 0%)" fill-opacity="1"><g transform="translate(343.323528, 331.831471)"><g><path d="M 13.042969 -34.359375 C 10.355469 -34.359375 2.628906 -34.359375 2.628906 -34.359375 L 2.628906 0.0546875 L 6.519531 0.0546875 L 6.519531 -15.945312 L 10.464844 -15.945312 C 12.109375 -15.945312 24.058594 -15.890625 24.058594 -25.753906 C 24.058594 -33.316406 15.835938 -34.359375 13.042969 -34.359375 Z M 9.535156 -16.824219 L 6.519531 -16.824219 L 6.519531 -33.480469 L 10.960938 -33.480469 C 16.550781 -33.480469 19.890625 -31.179688 19.890625 -25.152344 C 19.890625 -19.015625 15.945312 -16.824219 9.535156 -16.824219 Z M 9.535156 -16.824219 "/></g></g></g><g fill="rgb(92.939758%, 91.758728%, 91.758728%)" fill-opacity="1"><g transform="translate(87.47823, 187.030844)"><g><path d="M 72.324219 -7.144531 C 72.324219 -7.144531 63.777344 0.253906 48.980469 0.253906 C 34.695312 0.253906 14.414062 -6.121094 14.414062 -39.667969 C 14.414062 -72.707031 36.609375 -79.464844 48.980469 -79.464844 C 64.03125 -79.464844 72.324219 -73.46875 72.324219 -73.46875 L 72.324219 -76.277344 C 72.324219 -76.277344 63.519531 -81.507812 48.980469 -81.507812 C 26.019531 -81.507812 5.101562 -69.261719 5.101562 -39.667969 C 5.101562 -5.613281 31.761719 2.421875 47.832031 2.421875 C 63.777344 2.421875 72.324219 -4.335938 72.324219 -4.335938 Z M 72.324219 -7.144531 "/></g></g></g><g fill="rgb(92.939758%, 91.758728%, 91.758728%)" fill-opacity="1"><g transform="translate(201.574059, 186.318905)"><g><path d="M 65.449219 0.125 L 75.085938 0.125 L 40.671875 -79.964844 L 40.046875 -79.964844 L 4.378906 0.125 L 7.132812 0.125 L 21.273438 -31.410156 L 51.808594 -31.410156 Z M 22.148438 -33.539062 L 36.792969 -66.449219 L 50.933594 -33.539062 Z M 22.148438 -33.539062 "/></g></g></g><path stroke-linecap="round" transform="matrix(0.000000000000000046, -0.74818, 1.078652, 0.000000000000000066, 186.993273, 208.620015)" fill="none" stroke-linejoin="miter" d="M 0.499775 -0.00100637 L 166.908827 -0.00100637 " stroke="rgb(100%, 100%, 100%)" stroke-width="1" stroke-opacity="1" stroke-miterlimit="4"/></svg>