<svg xmlns="http://www.w3.org/2000/svg" xmlns:xlink="http://www.w3.org/1999/xlink" width="500" zoomAndPan="magnify" viewBox="0 0 375 374.999991" height="500" preserveAspectRatio="xMidYMid meet" version="1.0"><defs><g/></defs><path fill="rgb(15.289307%, 14.509583%, 14.509583%)" d="M 187.980469 52.558594 C 135.375 52.558594 92.730469 95.203125 92.730469 147.808594 C 92.730469 200.414062 135.375 243.058594 187.980469 243.058594 C 240.585938 243.058594 283.230469 200.414062 283.230469 147.808594 C 283.230469 95.203125 240.585938 52.558594 187.980469 52.558594 " fill-opacity="1" fill-rule="nonzero"/><g fill="rgb(0%, 0%, 0%)" fill-opacity="1"><g transform="translate(32.964225, 297.137635)"><g><path d="M 24.921875 -2.460938 C 24.921875 -2.460938 21.976562 0.0898438 16.878906 0.0898438 C 11.953125 0.0898438 4.964844 -2.109375 4.964844 -13.667969 C 4.964844 -25.050781 12.613281 -27.382812 16.878906 -27.382812 C 22.0625 -27.382812 24.921875 -25.316406 24.921875 -25.316406 L 24.921875 -26.28125 C 24.921875 -26.28125 21.886719 -28.085938 16.878906 -28.085938 C 8.964844 -28.085938 1.757812 -23.867188 1.757812 -13.667969 C 1.757812 -1.933594 10.945312 0.835938 16.480469 0.835938 C 21.976562 0.835938 24.921875 -1.496094 24.921875 -1.496094 Z M 24.921875 -2.460938 "/></g></g></g><g fill="rgb(0%, 0%, 0%)" fill-opacity="1"><g transform="translate(68.561749, 297.137635)"><g><path d="M 21.449219 0.0429688 L 11.121094 -12.964844 C 14.371094 -13.40625 19.292969 -14.988281 19.292969 -20.65625 C 19.292969 -26.722656 12.703125 -27.558594 10.460938 -27.558594 C 8.308594 -27.558594 2.109375 -27.558594 2.109375 -27.558594 L 2.109375 0.0429688 L 5.230469 0.0429688 L 5.230469 -12.789062 L 7.253906 -12.789062 L 17.449219 0.0429688 Z M 5.230469 -26.855469 L 8.789062 -26.855469 C 13.273438 -26.855469 15.953125 -25.007812 15.953125 -20.175781 C 15.953125 -15.25 12.789062 -13.492188 7.648438 -13.492188 L 5.230469 -13.492188 Z M 5.230469 -26.855469 "/></g></g></g><g fill="rgb(0%, 0%, 0%)" fill-opacity="1"><g transform="translate(100.292124, 297.137635)"><g><path d="M 21.40625 -27.558594 L 13.054688 -13.539062 L 5.011719 -27.558594 L 1.40625 -27.558594 L 10.285156 -12 L 10.285156 0.0429688 L 13.449219 0.0429688 L 13.449219 -12.832031 L 22.285156 -27.558594 Z M 21.40625 -27.558594 "/></g></g></g><g fill="rgb(0%, 0%, 0%)" fill-opacity="1"><g transform="translate(132.813504, 297.137635)"><g><path d="M 10.460938 -27.558594 C 8.308594 -27.558594 2.109375 -27.558594 2.109375 -27.558594 L 2.109375 0.0429688 L 5.230469 0.0429688 L 5.230469 -12.789062 L 8.394531 -12.789062 C 9.714844 -12.789062 19.292969 -12.746094 19.292969 -20.65625 C 19.292969 -26.722656 12.703125 -27.558594 10.460938 -27.558594 Z M 7.648438 -13.492188 L 5.230469 -13.492188 L 5.230469 -26.855469 L 8.789062 -26.855469 C 13.273438 -26.855469 15.953125 -25.007812 15.953125 -20.175781 C 15.953125 -15.25 12.789062 -13.492188 7.648438 -13.492188 Z M 7.648438 -13.492188 "/></g></g></g><g fill="rgb(0%, 0%, 0%)" fill-opacity="1"><g transform="translate(162.742142, 297.137635)"><g><path d="M 21.582031 -27.558594 L 1.449219 -27.558594 L 1.449219 -26.855469 L 9.933594 -26.855469 L 9.933594 0.0429688 L 13.097656 0.0429688 L 13.097656 -26.855469 L 21.582031 -26.855469 Z M 21.582031 -27.558594 "/></g></g></g><g fill="rgb(0%, 0%, 0%)" fill-opacity="1"><g transform="translate(194.604348, 297.137635)"><g><path d="M 16.878906 -28.085938 C 8.964844 -28.085938 1.757812 -23.867188 1.757812 -13.667969 C 1.757812 -1.933594 11.339844 0.835938 16.878906 0.835938 C 22.371094 0.835938 31.996094 -1.933594 31.996094 -13.667969 C 31.996094 -23.867188 24.746094 -28.085938 16.878906 -28.085938 Z M 16.878906 0.0898438 C 11.910156 0.0898438 4.964844 -2.109375 4.964844 -13.667969 C 4.964844 -25.050781 12.613281 -27.382812 16.878906 -27.382812 C 21.140625 -27.382812 28.789062 -25.050781 28.789062 -13.667969 C 28.789062 -2.109375 21.800781 0.0898438 16.878906 0.0898438 Z M 16.878906 0.0898438 "/></g></g></g><g fill="rgb(0%, 0%, 0%)" fill-opacity="1"><g transform="translate(237.408841, 297.137635)"><g/></g></g><g fill="rgb(0%, 0%, 0%)" fill-opacity="1"><g transform="translate(257.186214, 297.137635)"><g><path d="M 22.988281 0.0429688 L 26.371094 0.0429688 L 14.285156 -28.085938 L 14.066406 -28.085938 L 1.539062 0.0429688 L 2.503906 0.0429688 L 7.472656 -11.03125 L 18.195312 -11.03125 Z M 7.78125 -11.777344 L 12.921875 -23.339844 L 17.886719 -11.777344 Z M 7.78125 -11.777344 "/></g></g></g><g fill="rgb(0%, 0%, 0%)" fill-opacity="1"><g transform="translate(293.926301, 297.137635)"><g><path d="M 10.460938 -27.558594 C 8.308594 -27.558594 2.109375 -27.558594 2.109375 -27.558594 L 2.109375 0.0429688 L 5.230469 0.0429688 L 5.230469 -12.789062 L 8.394531 -12.789062 C 9.714844 -12.789062 19.292969 -12.746094 19.292969 -20.65625 C 19.292969 -26.722656 12.703125 -27.558594 10.460938 -27.558594 Z M 7.648438 -13.492188 L 5.230469 -13.492188 L 5.230469 -26.855469 L 8.789062 -26.855469 C 13.273438 -26.855469 15.953125 -25.007812 15.953125 -20.175781 C 15.953125 -15.25 12.789062 -13.492188 7.648438 -13.492188 Z M 7.648438 -13.492188 "/></g></g></g><g fill="rgb(0%, 0%, 0%)" fill-opacity="1"><g transform="translate(323.854946, 297.137635)"><g><path d="M 10.460938 -27.558594 C 8.308594 -27.558594 2.109375 -27.558594 2.109375 -27.558594 L 2.109375 0.0429688 L 5.230469 0.0429688 L 5.230469 -12.789062 L 8.394531 -12.789062 C 9.714844 -12.789062 19.292969 -12.746094 19.292969 -20.65625 C 19.292969 -26.722656 12.703125 -27.558594 10.460938 -27.558594 Z M 7.648438 -13.492188 L 5.230469 -13.492188 L 5.230469 -26.855469 L 8.789062 -26.855469 C 13.273438 -26.855469 15.953125 -25.007812 15.953125 -20.175781 C 15.953125 -15.25 12.789062 -13.492188 7.648438 -13.492188 Z M 7.648438 -13.492188 "/></g></g></g><g fill="rgb(92.939758%, 91.758728%, 91.758728%)" fill-opacity="1"><g transform="translate(108.755747, 180.999883)"><g><path d="M 58.007812 -5.730469 C 58.007812 -5.730469 51.152344 0.203125 39.285156 0.203125 C 27.828125 0.203125 11.558594 -4.910156 11.558594 -31.816406 C 11.558594 -58.3125 29.359375 -63.734375 39.285156 -63.734375 C 51.355469 -63.734375 58.007812 -58.925781 58.007812 -58.925781 L 58.007812 -61.179688 C 58.007812 -61.179688 50.949219 -65.371094 39.285156 -65.371094 C 20.871094 -65.371094 4.09375 -55.550781 4.09375 -31.816406 C 4.09375 -4.5 25.472656 1.945312 38.363281 1.945312 C 51.152344 1.945312 58.007812 -3.476562 58.007812 -3.476562 Z M 58.007812 -5.730469 "/></g></g></g><g fill="rgb(92.939758%, 91.758728%, 91.758728%)" fill-opacity="1"><g transform="translate(200.266624, 180.428884)"><g><path d="M 52.492188 0.101562 L 60.222656 0.101562 L 32.621094 -64.136719 L 32.117188 -64.136719 L 3.511719 0.101562 L 5.722656 0.101562 L 17.0625 -25.191406 L 41.554688 -25.191406 Z M 17.765625 -26.898438 L 29.507812 -53.296875 L 40.851562 -26.898438 Z M 17.765625 -26.898438 "/></g></g></g><path stroke-linecap="round" transform="matrix(0.000000000000000046, -0.748516, 0.676056, 0.000000000000000041, 188.478626, 198.312174)" fill="none" stroke-linejoin="miter" d="M 0.500556 0.00272614 L 133.769419 0.00272614 " stroke="rgb(100%, 100%, 100%)" stroke-width="1" stroke-opacity="1" stroke-miterlimit="4"/></svg>