<?xml version="1.0" standalone="no"?>
<!DOCTYPE svg PUBLIC "-//W3C//DTD SVG 20010904//EN"
 "http://www.w3.org/TR/2001/REC-SVG-20010904/DTD/svg10.dtd">
<svg version="1.0" xmlns="http://www.w3.org/2000/svg"
 width="700.000000pt" height="700.000000pt" viewBox="0 0 700.000000 700.000000"
 preserveAspectRatio="xMidYMid meet">
<metadata>
Created by potrace 1.14, written by Peter Selinger 2001-2017
</metadata>
<g transform="translate(0.000000,700.000000) scale(0.100000,-0.100000)"
fill="#000000" stroke="none">
<path d="M3309 6636 c-2 -2 -44 -7 -94 -10 -84 -7 -259 -31 -287 -41 -7 -2
-30 -7 -52 -10 -105 -15 -423 -110 -523 -156 -24 -10 -45 -19 -48 -19 -13 0
-191 -85 -285 -136 -399 -216 -738 -507 -1014 -870 -25 -32 -49 -63 -53 -69
-16 -20 -120 -181 -157 -243 -37 -61 -123 -232 -164 -322 -75 -169 -166 -448
-188 -580 -3 -14 -7 -31 -9 -38 -3 -7 -9 -41 -15 -75 -5 -34 -12 -73 -14 -87
-24 -136 -31 -247 -31 -490 0 -207 8 -364 20 -410 3 -8 7 -35 10 -60 3 -25 7
-54 9 -65 2 -11 12 -56 21 -100 43 -210 109 -415 202 -625 74 -168 194 -389
243 -447 5 -7 10 -16 10 -21 0 -5 9 -17 20 -27 11 -10 20 -22 20 -28 0 -5 10
-21 23 -36 12 -15 31 -40 42 -55 168 -235 493 -546 754 -720 445 -296 859
-449 1411 -521 176 -23 594 -23 705 0 11 2 43 7 70 10 119 14 222 35 435 89
195 50 508 183 723 308 344 199 682 499 926 823 68 90 201 289 201 301 0 3 8
18 19 32 25 36 123 231 167 334 61 141 152 423 170 527 3 14 9 45 15 69 5 23
12 59 15 80 3 20 7 43 9 50 3 7 7 39 11 70 3 31 7 68 9 80 16 98 23 432 12
573 -17 210 -56 441 -103 608 -186 663 -579 1245 -1123 1665 -82 63 -226 162
-288 197 -190 110 -352 189 -478 235 -177 65 -383 128 -460 140 -22 3 -42 7
-45 9 -6 4 -162 30 -275 46 -75 10 -557 24 -566 15z"/>
</g>
</svg>
